<svg width="16" height="12" viewBox="0 0 16 12" fill="none" xmlns="http://www.w3.org/2000/svg">
<path fill-rule="evenodd" clip-rule="evenodd" d="M3.9007 3.5762C2.14979 3.93079 0.832031 5.47783 0.832031 7.33317C0.832031 9.45026 2.54827 11.1665 4.66536 11.1665H11.6654C13.5984 11.1665 15.1654 9.5995 15.1654 7.6665C15.1654 5.90256 13.8605 4.4434 12.1633 4.20166C12.0939 1.96133 10.2559 0.166504 7.9987 0.166504C5.95593 0.166504 4.25691 1.63621 3.9007 3.5762ZM4.94011 3.50955C5.69689 3.56323 6.39386 3.83688 6.96603 4.26676C7.1868 4.43263 7.23131 4.74607 7.06544 4.96684C6.89956 5.18762 6.58613 5.23212 6.36535 5.06625C5.89181 4.71047 5.30391 4.49984 4.66536 4.49984C4.57336 4.49984 4.48252 4.50421 4.39301 4.51272C2.95623 4.64945 1.83203 5.86032 1.83203 7.33317C1.83203 8.89798 3.10056 10.1665 4.66536 10.1665H11.6654C13.0461 10.1665 14.1654 9.04722 14.1654 7.6665C14.1654 6.4253 13.2608 5.39536 12.075 5.1999C11.9335 5.86822 11.6319 6.47736 11.2128 6.98489C11.0369 7.19781 10.7218 7.22787 10.5089 7.05203C10.2959 6.87619 10.2659 6.56103 10.4417 6.34812C10.8368 5.86971 11.0936 5.27427 11.1524 4.62166C11.161 4.52676 11.1654 4.43054 11.1654 4.33317C11.1654 2.58427 9.7476 1.1665 7.9987 1.1665C6.53477 1.1665 5.30251 2.16015 4.94011 3.50955Z" fill="#394251"/>
</svg>
