<svg width="14" height="16" viewBox="0 0 14 16" fill="none" xmlns="http://www.w3.org/2000/svg">
<path d="M10.9971 0.833008C11.2732 0.833008 11.4971 1.05687 11.4971 1.33301V1.75781C12.0333 1.90987 12.4858 2.15554 12.8623 2.5625C13.3808 3.12308 13.6122 3.8312 13.7227 4.71875C13.8308 5.58857 13.8301 6.7037 13.8301 8.12598V8.53906C13.8301 9.96131 13.8308 11.0765 13.7227 11.9463C13.6123 12.834 13.3809 13.5429 12.8623 14.1035C12.3386 14.6695 11.668 14.9259 10.8291 15.0479C10.0171 15.1658 8.97982 15.166 7.6709 15.166H6.32324C5.01432 15.166 3.977 15.1658 3.16504 15.0479C2.32619 14.9259 1.65552 14.6695 1.13184 14.1035C0.613229 13.5429 0.381885 12.834 0.271485 11.9463C0.163339 11.0765 0.164056 9.9613 0.164063 8.53906V8.12598C0.164056 6.7037 0.163312 5.58857 0.271485 4.71875C0.381903 3.8312 0.613303 3.12308 1.13184 2.5625C1.50834 2.15554 1.96084 1.90987 2.49707 1.75781V1.33301C2.49707 1.05687 2.72093 0.833008 2.99707 0.833008C3.27321 0.833008 3.49707 1.05687 3.49707 1.33301V1.57617C4.25443 1.4989 5.18646 1.49999 6.32324 1.5H7.6709C8.80768 1.49999 9.73971 1.4989 10.4971 1.57617V1.33301C10.4971 1.05687 10.7209 0.833008 10.9971 0.833008ZM1.19336 5.83301C1.16778 6.47093 1.16406 7.23382 1.16406 8.16211V8.50391C1.16406 9.96944 1.16504 11.0223 1.26465 11.8232C1.36291 12.6132 1.54933 13.0821 1.86523 13.4238C2.17625 13.7601 2.59542 13.9549 3.30859 14.0586C4.0403 14.1649 5.00487 14.166 6.36328 14.166H7.63086C8.98927 14.166 9.95384 14.1649 10.6855 14.0586C11.3987 13.9549 11.8179 13.7601 12.1289 13.4238C12.4448 13.0821 12.6312 12.6132 12.7295 11.8232C12.8291 11.0223 12.8301 9.96944 12.8301 8.50391V8.16211C12.8301 7.23382 12.8264 6.47093 12.8008 5.83301H1.19336ZM6.36328 2.5C5.11833 2.5 4.20434 2.50196 3.49707 2.58398V2.66602C3.49707 2.94216 3.27321 3.16602 2.99707 3.16602C2.76885 3.16602 2.5785 3.01266 2.51856 2.80371C2.24604 2.91185 2.03855 3.05385 1.86523 3.24121C1.55039 3.58159 1.36423 4.0485 1.26563 4.83301H12.7285C12.6299 4.0485 12.4438 3.58159 12.1289 3.24121C11.9554 3.05365 11.7475 2.91189 11.4746 2.80371C11.4146 3.01253 11.2252 3.16602 10.9971 3.16602C10.7209 3.16602 10.4971 2.94216 10.4971 2.66602V2.58398C9.7898 2.50196 8.87581 2.5 7.63086 2.5H6.36328Z" fill="#394251"/>
</svg>
