<svg width="16" height="16" viewBox="0 0 16 16" fill="none" xmlns="http://www.w3.org/2000/svg">
<path fill-rule="evenodd" clip-rule="evenodd" d="M11.1198 8.52952C11.0332 8.32153 10.8299 8.18605 10.6046 8.18605C10.3793 8.18605 10.1761 8.32153 10.0894 8.52952L8.22894 12.9946C8.11039 13.2792 8.24494 13.606 8.52948 13.7245C8.81402 13.8431 9.1408 13.7085 9.25936 13.424L9.7364 12.2791H11.4728L11.9499 13.424C12.0684 13.7085 12.3952 13.8431 12.6797 13.7245C12.9643 13.606 13.0988 13.2792 12.9803 12.9946L11.1198 8.52952ZM10.6046 10.1953L11.0077 11.1628H10.2015L10.6046 10.1953Z" fill="#161616"/>
<path d="M5.13488 2.23256C5.44314 2.23256 5.69302 2.48245 5.69302 2.7907V2.95108H8C8.30825 2.95108 8.55814 3.20097 8.55814 3.50922C8.55814 3.81747 8.30825 4.06736 8 4.06736H7.10495C6.82971 4.83471 6.40345 5.55251 5.92666 6.19704L6.5976 6.89455C6.8113 7.1167 6.80444 7.47003 6.58228 7.68372C6.36012 7.89742 6.0068 7.89056 5.7931 7.66841L5.21768 7.07021C4.77012 7.57705 4.30923 8.02909 3.89407 8.41085C3.66717 8.61949 3.31408 8.60469 3.10543 8.37779C2.89679 8.15088 2.91159 7.7978 3.13849 7.58915C3.56331 7.19851 4.02782 6.74022 4.46787 6.23191C4.37468 6.11215 4.28122 5.98764 4.1938 5.86641C4.01841 5.62318 3.83883 5.35432 3.74713 5.15756C3.61691 4.87816 3.73785 4.5461 4.01724 4.41588C4.29664 4.28567 4.6287 4.4066 4.75892 4.68599C4.80117 4.77665 4.92299 4.96911 5.09923 5.21351C5.12562 5.25011 5.15259 5.287 5.17992 5.3239C5.46398 4.91831 5.71201 4.49723 5.90284 4.06736H2.7907C2.48245 4.06736 2.23256 3.81747 2.23256 3.50922C2.23256 3.20097 2.48245 2.95108 2.7907 2.95108H4.57674V2.7907C4.57674 2.48245 4.82663 2.23256 5.13488 2.23256Z" fill="#161616"/>
<path fill-rule="evenodd" clip-rule="evenodd" d="M6.10314 1.7842e-07H6.17593C7.36832 -8.73083e-06 8.31295 -1.59186e-05 9.06028 0.0883205C9.82751 0.17901 10.4591 0.369402 10.9867 0.802382C11.1657 0.949272 11.3298 1.11339 11.4767 1.29238C12.0017 1.93206 12.1748 2.73371 12.2387 3.76129C13.2661 3.82517 14.0678 3.99819 14.7076 4.52331C14.8866 4.6702 15.0507 4.83432 15.1976 5.01331C15.6306 5.5409 15.821 6.17249 15.9117 6.93972C16 7.68703 16 8.63165 16 9.82401V9.89684C16 11.0892 16 12.0339 15.9117 12.7812C15.821 13.5484 15.6306 14.18 15.1976 14.7076C15.0507 14.8866 14.8866 15.0507 14.7076 15.1976C14.18 15.6306 13.5484 15.821 12.7812 15.9117C12.0339 16 11.0893 16 9.89692 16H9.8241C8.63174 16 7.68703 16 6.93972 15.9117C6.17249 15.821 5.5409 15.6306 5.01331 15.1976C4.83432 15.0507 4.6702 14.8866 4.52331 14.7076C3.99834 14.0679 3.82517 13.2663 3.76127 12.2387C2.7337 12.1748 1.93205 12.0017 1.29238 11.4767C1.11339 11.3298 0.949272 11.1657 0.802382 10.9867C0.369402 10.4591 0.17901 9.82751 0.0883205 9.06028C-1.59186e-05 8.31295 -8.73083e-06 7.36832 1.7842e-07 6.17593V6.10314C-8.73083e-06 4.91075 -1.59186e-05 3.96612 0.0883205 3.21879C0.17901 2.45156 0.369402 1.81997 0.802382 1.29238C0.949272 1.11339 1.11339 0.949272 1.29238 0.802382C1.81997 0.369402 2.45156 0.17901 3.21879 0.0883205C3.96612 -1.59186e-05 4.91075 -8.73083e-06 6.10314 1.7842e-07ZM4.86273 11.927C4.91349 13.0443 5.06019 13.6022 5.38621 13.9995C5.48671 14.1219 5.599 14.2342 5.72147 14.3347C6.01721 14.5774 6.40891 14.7249 7.07076 14.8031C7.74493 14.8828 8.62354 14.8837 9.86047 14.8837C11.0974 14.8837 11.976 14.8828 12.6502 14.8031C13.312 14.7249 13.7037 14.5774 13.9995 14.3347C14.1219 14.2342 14.2342 14.1219 14.3347 13.9995C14.5774 13.7037 14.7249 13.312 14.8031 12.6502C14.8828 11.976 14.8837 11.0974 14.8837 9.86047C14.8837 8.62354 14.8828 7.74493 14.8031 7.07076C14.7249 6.40891 14.5774 6.01721 14.3347 5.72147C14.2342 5.599 14.1219 5.48671 13.9995 5.38621C13.6043 5.06187 13.0497 4.91484 11.9426 4.86344L4.86273 11.927ZM11.138 4.08937C11.0879 2.96119 10.9414 2.39972 10.6138 2.00054C10.5133 1.87807 10.401 1.76578 10.2785 1.66528C9.98279 1.42257 9.59109 1.27511 8.92924 1.19688C8.25508 1.11719 7.37646 1.11628 6.13954 1.11628C4.90262 1.11628 4.02399 1.11719 3.34983 1.19688C2.68798 1.27511 2.29628 1.42257 2.00054 1.66528C1.87807 1.76578 1.76578 1.87807 1.66528 2.00054C1.42257 2.29628 1.27511 2.68798 1.19688 3.34983C1.11719 4.02399 1.11628 4.90262 1.11628 6.13954C1.11628 7.37646 1.11719 8.25508 1.19688 8.92924C1.27511 9.59109 1.42257 9.98279 1.66528 10.2785C1.76578 10.401 1.87807 10.5133 2.00054 10.6138C2.39788 10.9399 2.956 11.0866 4.07376 11.1373L11.138 4.08937Z" fill="#161616"/>
</svg>
