<svg width="14" height="16" viewBox="0 0 14 16" fill="none" xmlns="http://www.w3.org/2000/svg">
<path d="M7 0.833496C10.5169 0.833496 13.4998 3.73968 13.5 7.28369C13.5 9.09264 12.7339 10.6142 11.6582 11.8696C10.5866 13.1202 9.19025 14.1287 7.87891 14.9312L7.87109 14.936L7.86426 14.9399C7.60077 15.0887 7.30264 15.1665 7 15.1665C6.69736 15.1665 6.39923 15.0887 6.13574 14.9399L6.12695 14.9351L6.11914 14.9302C4.8126 14.1214 3.41675 13.1154 2.34473 11.8687C1.26804 10.6164 0.5 9.09867 0.5 7.28369C0.500177 3.73968 3.48311 0.833496 7 0.833496ZM7 1.8335C4.02302 1.8335 1.50018 4.30426 1.5 7.28369C1.5 8.79385 2.13321 10.0888 3.10254 11.2163C4.07418 12.3464 5.36604 13.287 6.63574 14.0737C6.74694 14.1347 6.87231 14.1665 7 14.1665C7.12813 14.1665 7.25375 14.1342 7.36523 14.0728C8.63539 13.2949 9.92723 12.3517 10.8984 11.2183C11.8675 10.0872 12.5 8.78841 12.5 7.28369C12.4998 4.30426 9.97698 1.8335 7 1.8335ZM7 4.50049C8.56481 4.50049 9.83301 5.76869 9.83301 7.3335C9.83292 8.89823 8.56475 10.1665 7 10.1665C5.43525 10.1665 4.16708 8.89823 4.16699 7.3335C4.16699 5.76869 5.43519 4.50049 7 4.50049ZM7 5.50049C5.98748 5.50049 5.16699 6.32097 5.16699 7.3335C5.16708 8.34594 5.98753 9.1665 7 9.1665C8.01247 9.1665 8.83292 8.34594 8.83301 7.3335C8.83301 6.32097 8.01252 5.50049 7 5.50049Z" fill="#394251"/>
</svg>
