<svg width="12" height="12" viewBox="0 0 12 12" fill="none" xmlns="http://www.w3.org/2000/svg">
<path d="M6.58203 6.72949C9.07882 6.72949 11.1035 8.75321 11.1035 11.25C11.1035 11.4915 10.9075 11.6873 10.666 11.6875H1.33203C1.09056 11.6873 0.894531 11.4915 0.894531 11.25C0.894531 8.75321 2.91923 6.72949 5.41602 6.72949H6.58203ZM5.41602 7.60449C3.55054 7.60449 2.01204 9.00524 1.7959 10.8125H10.2021C9.98601 9.00524 8.44751 7.60449 6.58203 7.60449H5.41602ZM5.99902 0.3125C7.5292 0.3125 8.76936 1.55287 8.76953 3.08301C8.76953 4.6133 7.52931 5.85449 5.99902 5.85449C4.46873 5.85449 3.22852 4.6133 3.22852 3.08301C3.22869 1.55287 4.46884 0.3125 5.99902 0.3125ZM5.99902 1.1875C4.95209 1.1875 4.10369 2.03612 4.10352 3.08301C4.10352 4.13005 4.95198 4.97949 5.99902 4.97949C7.04606 4.97949 7.89453 4.13005 7.89453 3.08301C7.89436 2.03612 7.04595 1.1875 5.99902 1.1875Z" fill="#394251"/>
</svg>
