<svg width="16" height="16" viewBox="0 0 16 16" fill="none" xmlns="http://www.w3.org/2000/svg">
<path d="M1.98047 0.833008C2.82923 0.833098 3.58396 1.39501 3.7959 2.21777L4.12598 3.5L14.6699 3.5C14.9459 3.50018 15.1699 3.72397 15.1699 4C15.1697 4.27581 14.9458 4.49982 14.6699 4.5H14.4502L14.0752 7.87402C13.975 8.77596 13.8149 9.50028 13.3193 9.98242C12.8238 10.4644 12.0956 10.6043 11.1914 10.6797L5.66309 11.1396C5.6072 11.2586 5.53999 11.3733 5.45801 11.4795L5.13672 11.8936C5.43596 12.1296 5.65905 12.4564 5.76562 12.833L9.57324 12.833C9.79092 12.0637 10.497 11.5001 11.3359 11.5C12.3485 11.5 13.1699 12.3205 13.1699 13.333C13.1698 14.3455 12.3484 15.166 11.3359 15.166C10.4971 15.1659 9.79102 14.6022 9.57324 13.833L5.76562 13.833C5.54779 14.6022 4.8419 15.166 4.00293 15.166C2.99046 15.166 2.17001 14.3455 2.16992 13.333C2.16992 12.3205 2.99041 11.5 4.00293 11.5C4.05991 11.5 4.11622 11.5027 4.17187 11.5078L4.66602 10.8682C4.82066 10.6678 4.87292 10.4134 4.81152 10.1748L2.82715 2.46777C2.73348 2.10378 2.39097 1.8331 1.98047 1.83301L1.33594 1.83301C1.06 1.83283 0.836025 1.60897 0.835937 1.33301C0.835938 1.05697 1.05994 0.833184 1.33594 0.833008H1.98047ZM4.00293 12.5C3.54269 12.5 3.16992 12.8728 3.16992 13.333C3.17001 13.7932 3.54275 14.166 4.00293 14.166C4.46311 14.166 4.83585 13.7932 4.83594 13.333C4.83594 12.8728 4.46317 12.5 4.00293 12.5ZM11.3359 12.5C10.8758 12.5002 10.5029 12.8729 10.5029 13.333C10.503 13.7931 10.8759 14.1658 11.3359 14.166C11.7961 14.166 12.1698 13.7932 12.1699 13.333C12.1699 12.8728 11.7962 12.5 11.3359 12.5ZM5.7793 9.92578C5.79618 9.9914 5.80806 10.0578 5.81738 10.124L11.1084 9.68359C12.0227 9.60739 12.4083 9.47346 12.6221 9.26563C12.8358 9.05771 12.9807 8.67579 13.082 7.76367L13.4443 4.5L4.38281 4.5L5.7793 9.92578Z" fill="#161616"/>
</svg>
