<svg width="16" height="16" viewBox="0 0 16 16" fill="none" xmlns="http://www.w3.org/2000/svg">
<path d="M8.00293 0.833008C11.961 0.833008 15.1699 4.04196 15.1699 8C15.1697 11.9578 11.9608 15.166 8.00293 15.166C4.04505 15.166 0.836201 11.9578 0.835938 8C0.835938 4.04196 4.04489 0.833008 8.00293 0.833008ZM8.00293 1.83301C4.59717 1.83301 1.83594 4.59424 1.83594 8C1.8362 11.4055 4.59734 14.166 8.00293 14.166C11.4085 14.166 14.1697 11.4055 14.1699 8C14.1699 4.59424 11.4087 1.83301 8.00293 1.83301ZM8.00781 4.16602C8.2839 4.16602 8.50772 4.38995 8.50781 4.66602V6.59082C9.09041 6.79674 9.50781 7.35275 9.50781 8.00586C9.50778 8.23807 9.45556 8.45808 9.36133 8.6543L10.3662 9.66016C10.5613 9.85543 10.5614 10.172 10.3662 10.3672C10.171 10.5622 9.8544 10.5623 9.65918 10.3672L8.65234 9.36035C8.45713 9.45334 8.23844 9.50586 8.00781 9.50586C7.17962 9.50568 6.50794 8.83407 6.50781 8.00586C6.50781 7.35284 6.92534 6.79681 7.50781 6.59082V4.66602C7.5079 4.39006 7.73187 4.16619 8.00781 4.16602ZM8.00781 7.50586C7.73182 7.50604 7.50781 7.72983 7.50781 8.00586C7.50794 8.28178 7.7319 8.50568 8.00781 8.50586C8.14524 8.50586 8.26997 8.45009 8.36035 8.36035C8.45135 8.26985 8.50775 8.14433 8.50781 8.00586C8.50781 7.72972 8.28395 7.50586 8.00781 7.50586Z" fill="#394251"/>
</svg>
